<svg xmlns="http://www.w3.org/2000/svg" xmlns:xlink="http://www.w3.org/1999/xlink" width="1654" zoomAndPan="magnify" viewBox="0 0 1240.5 260.999984" height="348" preserveAspectRatio="xMidYMid meet" version="1.0"><defs><g/><clipPath id="8b5e5054b0"><path d="M 229 2 L 472 2 L 472 244 L 229 244 Z M 229 2 " clip-rule="nonzero"/></clipPath><clipPath id="2da000e69d"><path d="M 453.640625 122.730469 C 453.640625 179.703125 407.457031 225.886719 350.484375 225.886719 C 293.515625 225.886719 247.332031 179.703125 247.332031 122.730469 C 247.332031 65.753906 293.515625 19.570312 350.484375 19.570312 C 407.457031 19.570312 453.640625 65.753906 453.640625 122.730469 Z M 471.058594 122.730469 C 471.058594 189.320312 417.074219 243.304688 350.484375 243.304688 C 283.894531 243.304688 229.914062 189.320312 229.914062 122.730469 C 229.914062 56.136719 283.894531 2.152344 350.484375 2.152344 C 417.074219 2.152344 471.058594 56.136719 471.058594 122.730469 Z M 417.007812 68.675781 C 417.007812 75.566406 411.425781 81.152344 404.535156 81.152344 C 397.648438 81.152344 392.0625 75.566406 392.0625 68.675781 C 392.0625 61.789062 397.648438 56.203125 404.535156 56.203125 C 411.425781 56.203125 417.007812 61.789062 417.007812 68.675781 Z M 314.21875 132.445312 C 319.585938 152.476562 340.171875 164.367188 360.203125 159 C 380.234375 153.628906 392.121094 133.042969 386.753906 113.011719 C 381.386719 92.980469 360.796875 81.09375 340.765625 86.460938 C 320.738281 91.828125 308.851562 112.417969 314.21875 132.445312 Z M 297.394531 136.957031 C 305.25 166.277344 335.390625 183.679688 364.710938 175.820312 C 394.03125 167.964844 411.429688 137.824219 403.574219 108.503906 C 395.71875 79.179688 365.582031 61.777344 336.257812 69.636719 C 306.9375 77.492188 289.539062 107.632812 297.394531 136.957031 Z M 297.394531 136.957031 " clip-rule="evenodd"/></clipPath><linearGradient x1="15" gradientTransform="matrix(8.038093, 0, 0, 8.038428, 229.91439, -21.962976)" y1="3.000001" x2="15" gradientUnits="userSpaceOnUse" y2="33" id="130be73712"><stop stop-opacity="1" stop-color="rgb(52.89917%, 49.398804%, 100%)" offset="0"/><stop stop-opacity="1" stop-color="rgb(52.796936%, 49.28894%, 100%)" offset="0.0078125"/><stop stop-opacity="1" stop-color="rgb(52.590942%, 49.07074%, 100%)" offset="0.015625"/><stop stop-opacity="1" stop-color="rgb(52.386475%, 48.852539%, 100%)" offset="0.0234375"/><stop stop-opacity="1" stop-color="rgb(52.180481%, 48.632812%, 100%)" offset="0.03125"/><stop stop-opacity="1" stop-color="rgb(51.976013%, 48.414612%, 100%)" offset="0.0390625"/><stop stop-opacity="1" stop-color="rgb(51.771545%, 48.196411%, 100%)" offset="0.046875"/><stop stop-opacity="1" stop-color="rgb(51.565552%, 47.97821%, 100%)" offset="0.0546875"/><stop stop-opacity="1" stop-color="rgb(51.361084%, 47.758484%, 100%)" offset="0.0625"/><stop stop-opacity="1" stop-color="rgb(51.156616%, 47.540283%, 100%)" offset="0.0703125"/><stop stop-opacity="1" stop-color="rgb(50.950623%, 47.322083%, 100%)" offset="0.078125"/><stop stop-opacity="1" stop-color="rgb(50.746155%, 47.103882%, 100%)" offset="0.0859375"/><stop stop-opacity="1" stop-color="rgb(50.540161%, 46.884155%, 100%)" offset="0.09375"/><stop stop-opacity="1" stop-color="rgb(50.335693%, 46.665955%, 100%)" offset="0.101562"/><stop stop-opacity="1" stop-color="rgb(50.131226%, 46.447754%, 100%)" offset="0.109375"/><stop stop-opacity="1" stop-color="rgb(49.925232%, 46.228027%, 100%)" offset="0.117188"/><stop stop-opacity="1" stop-color="rgb(49.720764%, 46.009827%, 100%)" offset="0.125"/><stop stop-opacity="1" stop-color="rgb(49.514771%, 45.791626%, 100%)" offset="0.132813"/><stop stop-opacity="1" stop-color="rgb(49.310303%, 45.573425%, 100%)" offset="0.140625"/><stop stop-opacity="1" stop-color="rgb(49.105835%, 45.353699%, 100%)" offset="0.148438"/><stop stop-opacity="1" stop-color="rgb(48.899841%, 45.135498%, 100%)" offset="0.15625"/><stop stop-opacity="1" stop-color="rgb(48.695374%, 44.917297%, 100%)" offset="0.164062"/><stop stop-opacity="1" stop-color="rgb(48.490906%, 44.699097%, 100%)" offset="0.171875"/><stop stop-opacity="1" stop-color="rgb(48.284912%, 44.47937%, 100%)" offset="0.179688"/><stop stop-opacity="1" stop-color="rgb(48.080444%, 44.261169%, 100%)" offset="0.1875"/><stop stop-opacity="1" stop-color="rgb(47.874451%, 44.042969%, 100%)" offset="0.195312"/><stop stop-opacity="1" stop-color="rgb(47.669983%, 43.824768%, 100%)" offset="0.203125"/><stop stop-opacity="1" stop-color="rgb(47.465515%, 43.605042%, 100%)" offset="0.210938"/><stop stop-opacity="1" stop-color="rgb(47.259521%, 43.386841%, 100%)" offset="0.21875"/><stop stop-opacity="1" stop-color="rgb(47.055054%, 43.16864%, 100%)" offset="0.226562"/><stop stop-opacity="1" stop-color="rgb(46.84906%, 42.948914%, 100%)" offset="0.234375"/><stop stop-opacity="1" stop-color="rgb(46.644592%, 42.730713%, 100%)" offset="0.242188"/><stop stop-opacity="1" stop-color="rgb(46.440125%, 42.512512%, 100%)" offset="0.25"/><stop stop-opacity="1" stop-color="rgb(46.234131%, 42.294312%, 100%)" offset="0.257812"/><stop stop-opacity="1" stop-color="rgb(46.029663%, 42.074585%, 100%)" offset="0.265625"/><stop stop-opacity="1" stop-color="rgb(45.825195%, 41.856384%, 100%)" offset="0.273438"/><stop stop-opacity="1" stop-color="rgb(45.619202%, 41.638184%, 100%)" offset="0.28125"/><stop stop-opacity="1" stop-color="rgb(45.414734%, 41.419983%, 100%)" offset="0.289062"/><stop stop-opacity="1" stop-color="rgb(45.20874%, 41.200256%, 100%)" offset="0.296875"/><stop stop-opacity="1" stop-color="rgb(45.004272%, 40.982056%, 100%)" offset="0.304687"/><stop stop-opacity="1" stop-color="rgb(44.799805%, 40.763855%, 100%)" offset="0.3125"/><stop stop-opacity="1" stop-color="rgb(44.593811%, 40.544128%, 100%)" offset="0.320312"/><stop stop-opacity="1" stop-color="rgb(44.389343%, 40.325928%, 100%)" offset="0.328125"/><stop stop-opacity="1" stop-color="rgb(44.18335%, 40.107727%, 100%)" offset="0.335938"/><stop stop-opacity="1" stop-color="rgb(43.978882%, 39.889526%, 100%)" offset="0.34375"/><stop stop-opacity="1" stop-color="rgb(43.774414%, 39.6698%, 100%)" offset="0.351562"/><stop stop-opacity="1" stop-color="rgb(43.56842%, 39.451599%, 100%)" offset="0.359375"/><stop stop-opacity="1" stop-color="rgb(43.363953%, 39.233398%, 100%)" offset="0.367188"/><stop stop-opacity="1" stop-color="rgb(43.159485%, 39.015198%, 100%)" offset="0.375"/><stop stop-opacity="1" stop-color="rgb(42.953491%, 38.795471%, 100%)" offset="0.382812"/><stop stop-opacity="1" stop-color="rgb(42.749023%, 38.577271%, 100%)" offset="0.390625"/><stop stop-opacity="1" stop-color="rgb(42.54303%, 38.35907%, 100%)" offset="0.398438"/><stop stop-opacity="1" stop-color="rgb(42.338562%, 38.139343%, 100%)" offset="0.40625"/><stop stop-opacity="1" stop-color="rgb(42.134094%, 37.921143%, 100%)" offset="0.414062"/><stop stop-opacity="1" stop-color="rgb(41.928101%, 37.702942%, 100%)" offset="0.421875"/><stop stop-opacity="1" stop-color="rgb(41.723633%, 37.484741%, 100%)" offset="0.429688"/><stop stop-opacity="1" stop-color="rgb(41.517639%, 37.265015%, 100%)" offset="0.4375"/><stop stop-opacity="1" stop-color="rgb(41.313171%, 37.046814%, 100%)" offset="0.445312"/><stop stop-opacity="1" stop-color="rgb(41.108704%, 36.828613%, 100%)" offset="0.453125"/><stop stop-opacity="1" stop-color="rgb(40.90271%, 36.610413%, 100%)" offset="0.460938"/><stop stop-opacity="1" stop-color="rgb(40.644836%, 36.329651%, 100%)" offset="0.46875"/><stop stop-opacity="1" stop-color="rgb(40.332031%, 35.98938%, 100%)" offset="0.476562"/><stop stop-opacity="1" stop-color="rgb(40.0177%, 35.646057%, 100%)" offset="0.484375"/><stop stop-opacity="1" stop-color="rgb(39.704895%, 35.30426%, 100%)" offset="0.492188"/><stop stop-opacity="1" stop-color="rgb(39.39209%, 34.962463%, 100%)" offset="0.5"/><stop stop-opacity="1" stop-color="rgb(39.079285%, 34.620667%, 100%)" offset="0.507812"/><stop stop-opacity="1" stop-color="rgb(38.766479%, 34.27887%, 100%)" offset="0.515625"/><stop stop-opacity="1" stop-color="rgb(38.453674%, 33.937073%, 100%)" offset="0.523438"/><stop stop-opacity="1" stop-color="rgb(38.139343%, 33.59375%, 100%)" offset="0.53125"/><stop stop-opacity="1" stop-color="rgb(37.826538%, 33.251953%, 100%)" offset="0.539062"/><stop stop-opacity="1" stop-color="rgb(37.513733%, 32.910156%, 100%)" offset="0.546875"/><stop stop-opacity="1" stop-color="rgb(37.200928%, 32.568359%, 100%)" offset="0.554688"/><stop stop-opacity="1" stop-color="rgb(36.888123%, 32.226562%, 100%)" offset="0.5625"/><stop stop-opacity="1" stop-color="rgb(36.573792%, 31.88324%, 100%)" offset="0.570312"/><stop stop-opacity="1" stop-color="rgb(36.260986%, 31.541443%, 100%)" offset="0.578125"/><stop stop-opacity="1" stop-color="rgb(35.948181%, 31.199646%, 100%)" offset="0.585938"/><stop stop-opacity="1" stop-color="rgb(35.635376%, 30.857849%, 100%)" offset="0.59375"/><stop stop-opacity="1" stop-color="rgb(35.322571%, 30.516052%, 100%)" offset="0.601562"/><stop stop-opacity="1" stop-color="rgb(35.009766%, 30.174255%, 100%)" offset="0.609375"/><stop stop-opacity="1" stop-color="rgb(34.695435%, 29.830933%, 100%)" offset="0.617188"/><stop stop-opacity="1" stop-color="rgb(34.382629%, 29.489136%, 100%)" offset="0.625"/><stop stop-opacity="1" stop-color="rgb(34.069824%, 29.147339%, 100%)" offset="0.632812"/><stop stop-opacity="1" stop-color="rgb(33.757019%, 28.805542%, 100%)" offset="0.640625"/><stop stop-opacity="1" stop-color="rgb(33.444214%, 28.463745%, 100%)" offset="0.648437"/><stop stop-opacity="1" stop-color="rgb(33.131409%, 28.120422%, 100%)" offset="0.65625"/><stop stop-opacity="1" stop-color="rgb(32.817078%, 27.778625%, 100%)" offset="0.664062"/><stop stop-opacity="1" stop-color="rgb(32.504272%, 27.436829%, 100%)" offset="0.671875"/><stop stop-opacity="1" stop-color="rgb(32.191467%, 27.095032%, 100%)" offset="0.679687"/><stop stop-opacity="1" stop-color="rgb(31.878662%, 26.753235%, 100%)" offset="0.6875"/><stop stop-opacity="1" stop-color="rgb(31.565857%, 26.411438%, 100%)" offset="0.695312"/><stop stop-opacity="1" stop-color="rgb(31.251526%, 26.068115%, 100%)" offset="0.703125"/><stop stop-opacity="1" stop-color="rgb(30.938721%, 25.726318%, 100%)" offset="0.710938"/><stop stop-opacity="1" stop-color="rgb(30.625916%, 25.384521%, 100%)" offset="0.71875"/><stop stop-opacity="1" stop-color="rgb(30.31311%, 25.042725%, 100%)" offset="0.726562"/><stop stop-opacity="1" stop-color="rgb(30.000305%, 24.700928%, 100%)" offset="0.734375"/><stop stop-opacity="1" stop-color="rgb(29.6875%, 24.359131%, 100%)" offset="0.742188"/><stop stop-opacity="1" stop-color="rgb(29.373169%, 24.015808%, 100%)" offset="0.75"/><stop stop-opacity="1" stop-color="rgb(29.060364%, 23.674011%, 100%)" offset="0.757812"/><stop stop-opacity="1" stop-color="rgb(28.747559%, 23.332214%, 100%)" offset="0.765625"/><stop stop-opacity="1" stop-color="rgb(28.434753%, 22.990417%, 100%)" offset="0.773438"/><stop stop-opacity="1" stop-color="rgb(28.121948%, 22.648621%, 100%)" offset="0.78125"/><stop stop-opacity="1" stop-color="rgb(27.807617%, 22.305298%, 100%)" offset="0.789062"/><stop stop-opacity="1" stop-color="rgb(27.494812%, 21.963501%, 100%)" offset="0.796875"/><stop stop-opacity="1" stop-color="rgb(27.182007%, 21.621704%, 100%)" offset="0.804687"/><stop stop-opacity="1" stop-color="rgb(26.869202%, 21.279907%, 100%)" offset="0.8125"/><stop stop-opacity="1" stop-color="rgb(26.556396%, 20.93811%, 100%)" offset="0.820312"/><stop stop-opacity="1" stop-color="rgb(26.243591%, 20.596313%, 100%)" offset="0.828125"/><stop stop-opacity="1" stop-color="rgb(25.92926%, 20.252991%, 100%)" offset="0.835938"/><stop stop-opacity="1" stop-color="rgb(25.616455%, 19.911194%, 100%)" offset="0.84375"/><stop stop-opacity="1" stop-color="rgb(25.30365%, 19.569397%, 100%)" offset="0.851562"/><stop stop-opacity="1" stop-color="rgb(24.990845%, 19.2276%, 100%)" offset="0.859375"/><stop stop-opacity="1" stop-color="rgb(24.67804%, 18.885803%, 100%)" offset="0.867188"/><stop stop-opacity="1" stop-color="rgb(24.363708%, 18.54248%, 100%)" offset="0.875"/><stop stop-opacity="1" stop-color="rgb(24.050903%, 18.200684%, 100%)" offset="0.882812"/><stop stop-opacity="1" stop-color="rgb(23.738098%, 17.858887%, 100%)" offset="0.890625"/><stop stop-opacity="1" stop-color="rgb(23.425293%, 17.51709%, 100%)" offset="0.898438"/><stop stop-opacity="1" stop-color="rgb(23.112488%, 17.175293%, 100%)" offset="0.90625"/><stop stop-opacity="1" stop-color="rgb(22.799683%, 16.833496%, 100%)" offset="0.914062"/><stop stop-opacity="1" stop-color="rgb(22.485352%, 16.490173%, 100%)" offset="0.921875"/><stop stop-opacity="1" stop-color="rgb(22.172546%, 16.148376%, 100%)" offset="0.929687"/><stop stop-opacity="1" stop-color="rgb(21.859741%, 15.80658%, 100%)" offset="0.9375"/><stop stop-opacity="1" stop-color="rgb(21.546936%, 15.464783%, 100%)" offset="0.945312"/><stop stop-opacity="1" stop-color="rgb(21.234131%, 15.122986%, 100%)" offset="0.953125"/><stop stop-opacity="1" stop-color="rgb(20.9198%, 14.781189%, 100%)" offset="0.960938"/><stop stop-opacity="1" stop-color="rgb(20.606995%, 14.437866%, 100%)" offset="0.96875"/><stop stop-opacity="1" stop-color="rgb(20.294189%, 14.096069%, 100%)" offset="0.976562"/><stop stop-opacity="1" stop-color="rgb(19.981384%, 13.754272%, 100%)" offset="0.984375"/><stop stop-opacity="1" stop-color="rgb(19.668579%, 13.412476%, 100%)" offset="0.992188"/><stop stop-opacity="1" stop-color="rgb(19.355774%, 13.070679%, 100%)" offset="1"/></linearGradient></defs><g clip-path="url(#8b5e5054b0)"><g clip-path="url(#2da000e69d)"><path fill="url(#130be73712)" d="M 229.914062 2.152344 L 229.914062 243.304688 L 471.058594 243.304688 L 471.058594 2.152344 Z M 229.914062 2.152344 " fill-rule="nonzero"/></g></g><g fill="#ffffff" fill-opacity="1"><g transform="translate(505.982004, 206.751075)"><g><path d="M 130.078125 -35.40625 C 130.078125 -31.125 128.320312 -27.101562 124.8125 -23.34375 C 121.3125 -19.582031 116.78125 -16.160156 111.21875 -13.078125 C 105.65625 -10.003906 99.453125 -7.3125 92.609375 -5 C 85.773438 -2.695312 79.019531 -0.734375 72.34375 0.890625 C 65.675781 2.515625 59.390625 3.753906 53.484375 4.609375 C 47.585938 5.472656 42.929688 5.90625 39.515625 5.90625 C 36.265625 5.90625 32.800781 5.601562 29.125 5 C 25.445312 4.40625 22.410156 3.082031 20.015625 1.03125 C 18.640625 0 17.4375 -2.304688 16.40625 -5.890625 C 15.382812 -9.484375 14.40625 -13.757812 13.46875 -18.71875 C 12.53125 -23.6875 11.71875 -29.035156 11.03125 -34.765625 C 10.34375 -40.492188 9.785156 -46.09375 9.359375 -51.5625 C 8.929688 -57.039062 8.585938 -62.085938 8.328125 -66.703125 C 8.078125 -71.328125 7.953125 -74.921875 7.953125 -77.484375 C 7.953125 -81.753906 8.078125 -86.925781 8.328125 -93 C 8.585938 -99.070312 8.972656 -105.570312 9.484375 -112.5 C 10.003906 -119.425781 10.691406 -126.476562 11.546875 -133.65625 C 12.398438 -140.84375 13.378906 -147.644531 14.484375 -154.0625 C 15.597656 -160.476562 16.96875 -166.25 18.59375 -171.375 C 20.21875 -176.507812 21.972656 -180.53125 23.859375 -183.4375 C 27.109375 -188.0625 31.210938 -190.375 36.171875 -190.375 C 39.597656 -190.375 42.503906 -189.21875 44.890625 -186.90625 C 47.285156 -184.59375 49.210938 -181.597656 50.671875 -177.921875 C 52.128906 -174.242188 53.238281 -170.140625 54 -165.609375 C 54.769531 -161.078125 55.328125 -156.585938 55.671875 -152.140625 C 56.015625 -147.691406 56.1875 -143.585938 56.1875 -139.828125 C 56.1875 -136.066406 56.1875 -133.070312 56.1875 -130.84375 C 56.1875 -117.5 55.882812 -104.285156 55.28125 -91.203125 C 54.6875 -78.117188 54.390625 -64.90625 54.390625 -51.5625 L 54.390625 -41.5625 C 62.085938 -43.957031 70.46875 -46.222656 79.53125 -48.359375 C 88.59375 -50.492188 97.234375 -51.5625 105.453125 -51.5625 C 108.359375 -51.5625 111.304688 -51.390625 114.296875 -51.046875 C 117.285156 -50.710938 119.9375 -49.988281 122.25 -48.875 C 124.5625 -47.757812 126.441406 -46.132812 127.890625 -44 C 129.347656 -41.863281 130.078125 -39 130.078125 -35.40625 Z M 130.078125 -35.40625 "/></g></g></g><g fill="#ffffff" fill-opacity="1"><g transform="translate(634.753878, 206.751075)"><g><path d="M 145.21875 -90.046875 C 145.21875 -83.035156 144.875 -75.8125 144.1875 -68.375 C 143.5 -60.9375 142.300781 -53.707031 140.59375 -46.6875 C 138.882812 -39.675781 136.53125 -33.050781 133.53125 -26.8125 C 130.539062 -20.570312 126.738281 -15.097656 122.125 -10.390625 C 117.507812 -5.679688 111.953125 -1.960938 105.453125 0.765625 C 98.953125 3.503906 91.335938 4.875 82.609375 4.875 C 69.785156 4.875 58.625 1.882812 49.125 -4.09375 C 39.632812 -10.082031 31.722656 -17.738281 25.390625 -27.0625 C 19.066406 -36.382812 14.363281 -46.816406 11.28125 -58.359375 C 8.207031 -69.910156 6.671875 -81.332031 6.671875 -92.625 C 6.671875 -93.820312 6.671875 -94.929688 6.671875 -95.953125 C 6.671875 -96.984375 6.753906 -97.925781 6.921875 -98.78125 C 7.097656 -102.363281 7.398438 -107.234375 7.828125 -113.390625 C 8.253906 -119.554688 8.976562 -126.144531 10 -133.15625 C 11.03125 -140.164062 12.359375 -147.347656 13.984375 -154.703125 C 15.609375 -162.054688 17.742188 -168.640625 20.390625 -174.453125 C 23.046875 -180.273438 26.253906 -185.066406 30.015625 -188.828125 C 33.773438 -192.585938 38.222656 -194.46875 43.359375 -194.46875 C 47.117188 -194.46875 50.28125 -193.351562 52.84375 -191.125 C 55.414062 -188.90625 57.515625 -186.128906 59.140625 -182.796875 C 60.765625 -179.460938 61.914062 -175.957031 62.59375 -172.28125 C 63.28125 -168.601562 63.625 -165.222656 63.625 -162.140625 C 63.625 -157.523438 63.15625 -152.863281 62.21875 -148.15625 C 61.28125 -143.457031 60.378906 -138.800781 59.515625 -134.1875 C 58.148438 -126.832031 57.039062 -119.472656 56.1875 -112.109375 C 55.332031 -104.753906 54.90625 -97.234375 54.90625 -89.546875 C 54.90625 -85.609375 55.117188 -80.816406 55.546875 -75.171875 C 55.972656 -69.523438 57.039062 -64.09375 58.75 -58.875 C 60.457031 -53.664062 62.894531 -49.222656 66.0625 -45.546875 C 69.226562 -41.867188 73.546875 -40.03125 79.015625 -40.03125 C 84.316406 -40.03125 88.550781 -41.820312 91.71875 -45.40625 C 94.882812 -49 97.234375 -53.273438 98.765625 -58.234375 C 100.304688 -63.203125 101.289062 -68.421875 101.71875 -73.890625 C 102.15625 -79.359375 102.375 -84.0625 102.375 -88 C 102.375 -99.289062 101.429688 -110.453125 99.546875 -121.484375 C 97.660156 -132.515625 95.179688 -143.503906 92.109375 -154.453125 C 91.253906 -157.359375 90.523438 -160.265625 89.921875 -163.171875 C 89.328125 -166.078125 89.03125 -168.984375 89.03125 -171.890625 C 89.03125 -176.679688 90.441406 -180.875 93.265625 -184.46875 C 96.085938 -188.0625 100.0625 -189.859375 105.1875 -189.859375 C 109.46875 -189.859375 113.445312 -188.1875 117.125 -184.84375 C 120.800781 -181.507812 124.09375 -177.148438 127 -171.765625 C 129.90625 -166.378906 132.425781 -160.347656 134.5625 -153.671875 C 136.695312 -147.003906 138.535156 -140.378906 140.078125 -133.796875 C 141.617188 -127.210938 142.773438 -120.925781 143.546875 -114.9375 C 144.316406 -108.945312 144.785156 -104.070312 144.953125 -100.3125 C 145.128906 -98.601562 145.21875 -96.9375 145.21875 -95.3125 C 145.21875 -93.6875 145.21875 -91.929688 145.21875 -90.046875 Z M 145.21875 -90.046875 "/></g></g></g><g fill="#ffffff" fill-opacity="1"><g transform="translate(789.17752, 206.751075)"><g><path d="M 183.1875 -27.96875 C 182.675781 -23.519531 181.945312 -19.15625 181 -14.875 C 180.0625 -10.601562 178.90625 -6.796875 177.53125 -3.453125 C 176.164062 -0.117188 174.414062 2.523438 172.28125 4.484375 C 170.144531 6.453125 167.707031 7.4375 164.96875 7.4375 C 162.226562 7.4375 159.742188 5.34375 157.515625 1.15625 C 155.296875 -3.03125 153.203125 -8.585938 151.234375 -15.515625 C 149.273438 -22.441406 147.484375 -30.265625 145.859375 -38.984375 C 144.234375 -47.710938 142.773438 -56.566406 141.484375 -65.546875 C 140.203125 -74.523438 139.132812 -83.289062 138.28125 -91.84375 C 137.425781 -100.394531 136.742188 -107.835938 136.234375 -114.171875 C 135.203125 -107.671875 134.003906 -100.398438 132.640625 -92.359375 C 131.273438 -84.316406 129.648438 -76.148438 127.765625 -67.859375 C 125.890625 -59.566406 123.835938 -51.441406 121.609375 -43.484375 C 119.390625 -35.535156 116.992188 -28.4375 114.421875 -22.1875 C 111.859375 -15.945312 109.125 -10.945312 106.21875 -7.1875 C 103.3125 -3.425781 100.234375 -1.546875 96.984375 -1.546875 C 94.078125 -1.546875 91.164062 -3.507812 88.25 -7.4375 C 85.34375 -11.375 82.519531 -16.546875 79.78125 -22.953125 C 77.050781 -29.367188 74.488281 -36.507812 72.09375 -44.375 C 69.695312 -52.25 67.472656 -60.160156 65.421875 -68.109375 C 63.367188 -76.066406 61.570312 -83.59375 60.03125 -90.6875 C 58.488281 -97.789062 57.289062 -103.738281 56.4375 -108.53125 C 56.4375 -104.9375 56.394531 -100.957031 56.3125 -96.59375 C 56.226562 -92.226562 56.1875 -89.109375 56.1875 -87.234375 C 56.1875 -86.378906 56.144531 -83.554688 56.0625 -78.765625 C 55.976562 -73.972656 55.675781 -68.238281 55.15625 -61.5625 C 54.644531 -54.894531 53.875 -47.753906 52.84375 -40.140625 C 51.820312 -32.535156 50.328125 -25.484375 48.359375 -18.984375 C 46.390625 -12.484375 43.953125 -7.007812 41.046875 -2.5625 C 38.140625 1.882812 34.550781 4.28125 30.28125 4.625 C 26.851562 3.082031 23.984375 0.472656 21.671875 -3.203125 C 19.367188 -6.878906 17.445312 -11.195312 15.90625 -16.15625 C 14.363281 -21.125 13.164062 -26.425781 12.3125 -32.0625 C 11.457031 -37.707031 10.773438 -43.222656 10.265625 -48.609375 C 9.753906 -54.003906 9.453125 -59.007812 9.359375 -63.625 C 9.273438 -68.238281 9.234375 -72.003906 9.234375 -74.921875 C 9.234375 -80.046875 9.53125 -86.5 10.125 -94.28125 C 10.726562 -102.0625 11.710938 -110.226562 13.078125 -118.78125 C 14.453125 -127.332031 16.25 -135.882812 18.46875 -144.4375 C 20.695312 -152.988281 23.390625 -160.644531 26.546875 -167.40625 C 29.710938 -174.164062 33.390625 -179.679688 37.578125 -183.953125 C 41.773438 -188.234375 46.609375 -190.375 52.078125 -190.375 C 54.648438 -190.375 57.390625 -188.914062 60.296875 -186 C 63.203125 -183.09375 66.109375 -179.285156 69.015625 -174.578125 C 71.921875 -169.878906 74.742188 -164.625 77.484375 -158.8125 C 80.222656 -153 82.832031 -147.140625 85.3125 -141.234375 C 87.789062 -135.335938 89.96875 -129.691406 91.84375 -124.296875 C 93.726562 -118.910156 95.269531 -114.335938 96.46875 -110.578125 C 97.832031 -114.679688 99.539062 -119.46875 101.59375 -124.9375 C 103.644531 -130.414062 105.910156 -136.101562 108.390625 -142 C 110.878906 -147.90625 113.617188 -153.722656 116.609375 -159.453125 C 119.597656 -165.179688 122.71875 -170.3125 125.96875 -174.84375 C 129.21875 -179.375 132.507812 -183.050781 135.84375 -185.875 C 139.1875 -188.695312 142.566406 -190.109375 145.984375 -190.109375 C 151.972656 -190.109375 157.101562 -187.882812 161.375 -183.4375 C 165.65625 -178.988281 169.25 -173.210938 172.15625 -166.109375 C 175.0625 -159.015625 177.367188 -151.0625 179.078125 -142.25 C 180.785156 -133.445312 182.109375 -124.726562 183.046875 -116.09375 C 183.992188 -107.457031 184.59375 -99.375 184.84375 -91.84375 C 185.101562 -84.320312 185.234375 -78.253906 185.234375 -73.640625 C 185.234375 -71.753906 185.234375 -69.1875 185.234375 -65.9375 C 185.234375 -62.6875 185.191406 -59.007812 185.109375 -54.90625 C 185.023438 -50.800781 184.8125 -46.4375 184.46875 -41.8125 C 184.125 -37.195312 183.695312 -32.582031 183.1875 -27.96875 Z M 183.1875 -27.96875 "/></g></g></g><g fill="#ffffff" fill-opacity="1"><g transform="translate(984.900511, 206.751075)"><g><path d="M 50.03125 -179.078125 C 50.03125 -176.679688 49.390625 -174.539062 48.109375 -172.65625 C 46.828125 -170.78125 45.160156 -169.113281 43.109375 -167.65625 C 41.054688 -166.207031 38.832031 -165.097656 36.4375 -164.328125 C 34.039062 -163.554688 31.816406 -163.171875 29.765625 -163.171875 C 26.335938 -163.171875 23.34375 -164.023438 20.78125 -165.734375 C 18.21875 -167.441406 16.9375 -170.09375 16.9375 -173.6875 C 16.9375 -176.257812 17.578125 -178.523438 18.859375 -180.484375 C 20.140625 -182.453125 21.71875 -184.078125 23.59375 -185.359375 C 25.476562 -186.648438 27.617188 -187.632812 30.015625 -188.3125 C 32.410156 -189 34.71875 -189.34375 36.9375 -189.34375 C 40.1875 -189.34375 43.179688 -188.570312 45.921875 -187.03125 C 48.660156 -185.488281 50.03125 -182.835938 50.03125 -179.078125 Z M 52.078125 -91.84375 C 52.078125 -89.445312 52.078125 -86.921875 52.078125 -84.265625 C 52.078125 -81.617188 51.992188 -79.101562 51.828125 -76.71875 C 51.648438 -73.800781 51.5625 -69.90625 51.5625 -65.03125 C 51.5625 -60.15625 51.390625 -54.894531 51.046875 -49.25 C 50.710938 -43.613281 50.160156 -37.882812 49.390625 -32.0625 C 48.617188 -26.25 47.378906 -20.945312 45.671875 -16.15625 C 43.960938 -11.375 41.695312 -7.484375 38.875 -4.484375 C 36.050781 -1.492188 32.5 0.0820312 28.21875 0.25 C 24.96875 0.425781 22.226562 -0.851562 20 -3.59375 C 17.78125 -6.332031 15.941406 -9.878906 14.484375 -14.234375 C 13.035156 -18.597656 11.96875 -23.472656 11.28125 -28.859375 C 10.601562 -34.242188 10.09375 -39.457031 9.75 -44.5 C 9.40625 -49.550781 9.234375 -54.210938 9.234375 -58.484375 C 9.234375 -62.765625 9.234375 -65.929688 9.234375 -67.984375 C 9.234375 -70.722656 9.234375 -74.613281 9.234375 -79.65625 C 9.234375 -84.707031 9.40625 -90.140625 9.75 -95.953125 C 10.09375 -101.765625 10.734375 -107.664062 11.671875 -113.65625 C 12.609375 -119.644531 13.972656 -125.117188 15.765625 -130.078125 C 17.566406 -135.035156 19.921875 -139.050781 22.828125 -142.125 C 25.742188 -145.207031 29.421875 -146.75 33.859375 -146.75 C 38.484375 -146.75 41.992188 -144.441406 44.390625 -139.828125 C 46.785156 -135.210938 48.578125 -129.820312 49.765625 -123.65625 C 50.960938 -117.5 51.644531 -111.382812 51.8125 -105.3125 C 51.988281 -99.238281 52.078125 -94.75 52.078125 -91.84375 Z M 52.078125 -91.84375 "/></g></g></g></svg>